<?xml version="1.0" encoding="UTF-8" standalone="no"?>
<!-- Created with Inkscape (http://www.inkscape.org/) -->

<svg
   xmlns:dc="http://purl.org/dc/elements/1.1/"
   xmlns:cc="http://creativecommons.org/ns#"
   xmlns:rdf="http://www.w3.org/1999/02/22-rdf-syntax-ns#"
   xmlns:svg="http://www.w3.org/2000/svg"
   xmlns="http://www.w3.org/2000/svg"
   xmlns:sodipodi="http://sodipodi.sourceforge.net/DTD/sodipodi-0.dtd"
   xmlns:inkscape="http://www.inkscape.org/namespaces/inkscape"
   width="1000"
   height="505.85941"
   viewBox="0 0 264.58333 133.84197"
   version="1.1"
   id="svg8"
   inkscape:version="0.92.2 (5c3e80d, 2017-08-06)"
   sodipodi:docname="Prime logo Ice Pop.svg">
  <defs
     id="defs2" />
  <sodipodi:namedview
     id="base"
     pagecolor="#ffffff"
     bordercolor="#666666"
     borderopacity="1.0"
     inkscape:pageopacity="0.0"
     inkscape:pageshadow="2"
     inkscape:zoom="0.7"
     inkscape:cx="507.33603"
     inkscape:cy="238.24018"
     inkscape:document-units="mm"
     inkscape:current-layer="layer1"
     showgrid="false"
     inkscape:snap-smooth-nodes="true"
     showguides="true"
     inkscape:guide-bbox="true"
     units="px"
     fit-margin-top="0"
     fit-margin-left="0"
     fit-margin-right="0"
     fit-margin-bottom="0"
     inkscape:window-width="1366"
     inkscape:window-height="705"
     inkscape:window-x="-8"
     inkscape:window-y="-8"
     inkscape:window-maximized="1" />
  <metadata
     id="metadata5">
    <rdf:RDF>
      <cc:Work
         rdf:about="">
        <dc:format>image/svg+xml</dc:format>
        <dc:type
           rdf:resource="http://purl.org/dc/dcmitype/StillImage" />
        <dc:title></dc:title>
      </cc:Work>
    </rdf:RDF>
  </metadata>
  <g
     inkscape:label="Layer 1"
     inkscape:groupmode="layer"
     id="layer1"
     transform="translate(390.97632,-62.770775)">
    <g
       id="g1109">
      <path
         inkscape:connector-curvature="0"
         id="rect1039"
         d="m -258.90759,62.770775 h 71.96131 V 196.61274 h -71.96131 z"
         style="opacity:1;fill:#ffffff;fill-opacity:1;stroke:none;stroke-width:3;stroke-linecap:square;stroke-linejoin:miter;stroke-miterlimit:4;stroke-dasharray:none;stroke-dashoffset:0;stroke-opacity:1" />
      <path
         inkscape:connector-curvature="0"
         id="rect1041"
         d="M -258.9076,62.770775 H -390.97632 V 196.61274 h 132.06872 z"
         style="opacity:1;fill:#ef1023;fill-opacity:1;stroke:none;stroke-width:3;stroke-linecap:square;stroke-linejoin:miter;stroke-miterlimit:4;stroke-dasharray:none;stroke-dashoffset:0;stroke-opacity:1" />
      <path
         inkscape:connector-curvature="0"
         id="rect1043"
         d="m -186.94627,62.770775 h 60.55328 V 196.61274 h -60.55328 z"
         style="opacity:1;fill:#0dbceb;fill-opacity:1;stroke:none;stroke-width:3;stroke-linecap:square;stroke-linejoin:miter;stroke-miterlimit:4;stroke-dasharray:none;stroke-dashoffset:0;stroke-opacity:1" />
      <g
         style="stroke-width:1.02399993"
         transform="matrix(0.97656255,0,0,0.97656255,-9.1634887,4.6081016)"
         id="g1074">
        <path
           inkscape:connector-curvature="0"
           style="color:#000000;font-style:normal;font-variant:normal;font-weight:normal;font-stretch:normal;font-size:medium;line-height:normal;font-family:sans-serif;font-variant-ligatures:normal;font-variant-position:normal;font-variant-caps:normal;font-variant-numeric:normal;font-variant-alternates:normal;font-feature-settings:normal;text-indent:0;text-align:start;text-decoration:none;text-decoration-line:none;text-decoration-style:solid;text-decoration-color:#000000;letter-spacing:normal;word-spacing:normal;text-transform:none;writing-mode:lr-tb;direction:ltr;text-orientation:mixed;dominant-baseline:auto;baseline-shift:baseline;text-anchor:start;white-space:normal;shape-padding:0;clip-rule:nonzero;display:inline;overflow:visible;visibility:visible;opacity:1;isolation:auto;mix-blend-mode:normal;color-interpolation:sRGB;color-interpolation-filters:linearRGB;solid-color:#000000;solid-opacity:1;vector-effect:none;fill:#000000;fill-opacity:1;fill-rule:nonzero;stroke:none;stroke-width:11.61070824;stroke-linecap:square;stroke-linejoin:miter;stroke-miterlimit:4;stroke-dasharray:none;stroke-dashoffset:0;stroke-opacity:1;color-rendering:auto;image-rendering:auto;shape-rendering:auto;text-rendering:auto;enable-background:accumulate"
           d="m -1443.041,273.2793 v 5.66992 401.38281 l 31.9453,31.94531 h 77.3223 V 551.41602 h 31.0546 c 22.927,0 41.6761,-6.65585 54.3418,-20.51954 4.0683,-4.45297 7.4603,-9.58607 10.2012,-15.35937 v 164.79492 l 31.9453,31.94531 h 77.3223 v -39.25195 c 1.3654,3.22941 2.7812,5.15234 2.7812,5.15234 l 1.7012,2.1543 31.9453,31.94531 h 79.6641 l -5.2305,-8.61328 c 0,0 -0.904,-1.40061 -2.0761,-5.22851 -0.8122,-2.6527 -1.6427,-6.32484 -2.0821,-10.97852 l 24.82033,24.82031 h 77.32227 v -27.10351 l 27.10352,27.10351 h 68.21484 v -31.17382 l 31.17383,31.17382 h 31.23633 l 4.08007,-26.52929 26.53125,26.53125 h 70.26954 v -27.10547 l 27.10351,27.10351 h 159.33008 v -77.63476 l -31.94531,-31.94531 h -50.0625 v -61.38868 h 61.55273 v -77.63281 l -31.94531,-31.94531 h -29.60742 v -50.30078 h 78.25781 v -76.20508 l -31.94531,-31.94531 h -155.58008 v 5.66992 21.43359 l -27.10352,-27.10351 h -87.8125 l -11.23828,82.0039 -6.85937,-50.05859 -31.94532,-31.94531 h -93.65039 v 5.66992 21.43359 l -27.10351,-27.10351 h -77.32229 v 5.66992 58.04687 c -2.3784,-4.88062 -5.3798,-9.21969 -9.1191,-12.95898 l -31.9453,-31.94531 c -12.2272,-12.95801 -31.1973,-18.8125 -57.211,-18.8125 h -110.5703 v 5.66992 57.14258 c -2.1617,-4.04527 -4.8071,-7.69968 -8.0215,-10.91407 l -31.9453,-31.94531 c -12.3408,-13.52254 -31.9067,-19.95312 -59.5527,-19.95312 z m 413.7109,199.42773 v 39.58203 c -1.2827,-2.28912 -2.7276,-4.43838 -4.3398,-6.42773 -4.3425,-5.3582 -9.8337,-9.44332 -15.9492,-12.69727 6.1739,-3.49992 11.8348,-8.01837 16.3418,-14.15625 1.4373,-1.9574 2.7534,-4.05885 3.9472,-6.30078 z"
           transform="scale(0.26458333)"
           id="path1025" />
        <g
           style="stroke-width:1.02399993"
           id="g1065">
          <path
             inkscape:connector-curvature="0"
             id="rect847"
             d="m -270.84357,73.805077 h 17.45778 V 178.50449 h -17.45778 z"
             style="opacity:1;fill:#ffffff;fill-opacity:1;stroke:none;stroke-width:0.20479997;stroke-linecap:square;stroke-linejoin:miter;stroke-miterlimit:4;stroke-dasharray:none;stroke-dashoffset:0;stroke-opacity:0.63551402" />
          <path
             inkscape:connector-curvature="0"
             id="rect849"
             transform="scale(0.26458333)"
             d="m -660.625,278.94922 v 395.71289 h 147.99023 v -66.29492 h -82.00781 V 503.69336 h 61.55274 v -66.29297 h -61.55274 v -93.58594 h 78.25781 v -64.86523 z"
             style="opacity:1;fill:#ffffff;fill-opacity:1;stroke:none;stroke-width:0.77404708;stroke-linecap:square;stroke-linejoin:miter;stroke-miterlimit:4;stroke-dasharray:none;stroke-dashoffset:0;stroke-opacity:0.63551402" />
          <path
             inkscape:connector-curvature="0"
             id="rect859"
             transform="scale(0.26458333)"
             d="m -1437.3711,278.94922 v 395.71289 h 65.9824 V 513.80078 h 36.7246 c 43.7173,0 67.5235,-24.71219 67.5235,-75.25586 v -88.12695 c 0,-47.01148 -16.9883,-71.46875 -70.5547,-71.46875 z m 65.9824,56.11523 h 16.3028 c 12.7855,0 21.6171,6.89793 21.6171,25.06836 v 69.20117 c 0,18.17045 -8.8316,25.06836 -21.6171,25.06836 h -16.3028 z"
             style="opacity:1;fill:#ffffff;fill-opacity:1;stroke:none;stroke-width:0.77404708;stroke-linecap:square;stroke-linejoin:miter;stroke-miterlimit:4;stroke-dasharray:none;stroke-dashoffset:0;stroke-opacity:0.63551402" />
          <path
             inkscape:connector-curvature="0"
             id="rect884"
             transform="scale(0.26458333)"
             d="m -1232.5059,278.94922 v 395.71289 h 65.9825 V 503.23438 h 19.3808 c 12.9065,0 20.1602,6.10177 20.1602,24.00195 V 650.7793 c 0,17.17259 5.3027,23.88281 5.3027,23.88281 h 66.8418 c 0,0 -5.3027,-8.73171 -5.3027,-25.9043 V 509.01953 c 0,-27.03619 -14.4753,-41.16693 -35.5996,-47.65625 20.4671,-6.5042 36.5468,-21.78165 36.5468,-56.39062 v -56.69727 c 0,-47.01148 -18.06,-69.32617 -68.4121,-69.32617 z m 65.9825,56.11523 h 19.3847 c 12.7855,0 20.5332,4.93365 20.5332,25.06836 v 57.23633 c 0,18.17046 -8.8317,25.06836 -21.6172,25.06836 h -18.3007 z"
             style="opacity:1;fill:#ffffff;fill-opacity:1;stroke:none;stroke-width:0.77404708;stroke-linecap:square;stroke-linejoin:miter;stroke-miterlimit:4;stroke-dasharray:none;stroke-dashoffset:0;stroke-opacity:0.63551402" />
          <path
             inkscape:connector-curvature="0"
             id="rect906"
             transform="scale(0.26458333)"
             d="m -919.23438,278.94922 v 395.71289 h 56.875 V 439.8418 h 5.02149 l 36.67578,234.82031 h 21.51953 l 36.12305,-234.82031 h 5.02148 v 234.82226 h 58.92969 V 278.94922 h -77.19726 l -27.45508,200.35547 h -5.02149 l -27.45703,-200.35547 z"
             style="opacity:1;fill:#ffffff;fill-opacity:1;stroke:none;stroke-width:0.77404708;stroke-linecap:square;stroke-linejoin:miter;stroke-miterlimit:4;stroke-dasharray:none;stroke-dashoffset:0;stroke-opacity:0.63551402" />
        </g>
      </g>
    </g>
  </g>
</svg>
